<?xml version="1.0" encoding="utf-8"?>
<!-- Generator: Adobe Illustrator 23.0.0, SVG Export Plug-In . SVG Version: 6.00 Build 0)  -->
<svg version="1.1" xmlns="http://www.w3.org/2000/svg" xmlns:xlink="http://www.w3.org/1999/xlink" x="0px" y="0px"
	 viewBox="0 0 658 472" style="enable-background:new 0 0 658 472;" xml:space="preserve">
<style type="text/css">
	.st0{fill-rule:evenodd;clip-rule:evenodd;fill:#98CA3F;}
	.st1{fill-rule:evenodd;clip-rule:evenodd;fill:#76A700;}
	.st2{fill-rule:evenodd;clip-rule:evenodd;fill:#3FCDB5;}
	.st3{fill-rule:evenodd;clip-rule:evenodd;fill:#06BE9F;}
	.st4{fill-rule:evenodd;clip-rule:evenodd;fill:#EDEDED;}
	.st5{fill-rule:evenodd;clip-rule:evenodd;fill:#FFAA4A;}
	.st6{fill-rule:evenodd;clip-rule:evenodd;fill:#FFB25B;}
	.st7{fill-rule:evenodd;clip-rule:evenodd;fill:#FFFFFF;}
	.st8{fill-rule:evenodd;clip-rule:evenodd;fill:#FF8D43;}
	.st9{fill-rule:evenodd;clip-rule:evenodd;fill:#C9C9C9;}
	.st10{fill-rule:evenodd;clip-rule:evenodd;fill:#008A99;}
	.st11{filter:url(#Adobe_OpacityMaskFilter);}
	.st12{mask:url(#mask-2_1_);fill-rule:evenodd;clip-rule:evenodd;fill:#FFAA4A;}
	.st13{fill-rule:evenodd;clip-rule:evenodd;fill:#FF925B;}
	.st14{fill-rule:evenodd;clip-rule:evenodd;fill:#FF8867;}
	.st15{fill-rule:evenodd;clip-rule:evenodd;fill:#272743;}
	.st16{filter:url(#Adobe_OpacityMaskFilter_1_);}
	.st17{mask:url(#mask-4_1_);fill-rule:evenodd;clip-rule:evenodd;fill:#98CA3F;}
	.st18{display:none;}
	.st19{display:inline;fill-rule:evenodd;clip-rule:evenodd;fill:#F8D000;}
	.st20{display:inline;}
</style>
<g id="Capa_1">
	<title>astronautas</title>
	<desc>Created with Sketch.</desc>
	<path id="Fill-1" class="st0" d="M39,176.6l140.9-35.3c23.9-6,48,8.7,53.7,32.7L273,339L88,381L39,176.6z"/>
	<polygon id="Fill-3" class="st1" points="253,232.3 302.1,436 598,381 530.5,163 	"/>
	<path id="Fill-5" class="st0" d="M631.5,127.7C585.1,147.3,530,162.8,530,162.8L597.3,381c0,0,39.2-14.3,45.7-31.6
		c22.4-59.8-4.3-225.4-4.3-225.4L631.5,127.7"/>
	<polygon id="Fill-7" class="st2" points="484.1,255 537,428.4 475.8,438 362.7,438 322,278.2 	"/>
	<path id="Fill-9" class="st3" d="M436.3,391.7c-0.9-10.5-11.7-16.2-18.8-23.7c-20.8-21.4-33.3-47.9-40.1-77.3
		c-1.8-7.2-1.1-14.6-1.1-21.8l-52.3,7.5L364.6,436H438C435.1,421.3,437.6,406.3,436.3,391.7"/>
	<path id="Fill-11" class="st4" d="M283.6,306.7L322.3,453H387l-74.7-252C285.6,227.7,273.3,267.5,283.6,306.7"/>
	<path id="Fill-13" class="st5" d="M241.3,391.7c-0.9-10.5-11.7-16.2-18.8-23.7c-20.8-21.4-33.3-47.9-40.1-77.3
		c-1.8-7.2-1.1-14.6-1.1-21.8l-52.3,7.5L169.6,436H243C240.1,421.3,242.6,406.3,241.3,391.7"/>
	<path id="Fill-15" class="st6" d="M344,427.4L291,254l-109.9,15.7c0,7.2-0.7,14.6,1.1,21.8c6.8,29.4,19.4,56,40.2,77.4
		c7.1,7.4,18,13.1,18.8,23.7c1.2,14.6-1.3,29.6,1.7,44.4h39.8L344,427.4z"/>
	<path id="Fill-17" class="st4" d="M95.6,306.7L134.1,453H185l-63.5-249C96.7,230.6,85.7,268.9,95.6,306.7"/>
	<path id="Fill-19" class="st7" d="M347.8,405.6c-10.7,10.1-23.7,17.7-38.6,21.7c-52.1,14-106.8-21.1-122.2-78.4
		c-15.4-57.4,14.4-115.2,66.5-129.3c13.1-3.5,26.3-3.9,39.1-1.7c-25.2-38-72.6-57.6-119-45.3c-20.9,5.5-38.9,16.7-52.6,31.5
		L183.9,452H360L347.8,405.6z"/>
	<path id="Fill-21" class="st8" d="M273,263c0,0-24.5,55.7-78,59l17.8-40.5L273,263z"/>
	<path id="Fill-23" class="st8" d="M268,266c0,0,10.7,19.3,33,17.9l-8.9-28.9L268,266z"/>
	<path id="Fill-25" class="st9" d="M275.4,265.2c11.6-3.1,23.3-4.7,34.6-4.9l-2.6-9.8c-3.2-12.1-8.3-23.2-14.8-33.1
		c-12.7-2.2-26-1.8-39.1,1.7c-50.6,13.6-80.1,68.4-67.7,123.9C198.8,307.3,231.7,277,275.4,265.2"/>
	<path id="Fill-27" class="st0" d="M193.7,352.4c5.6,17,0.6,33.9-11.1,37.7c-11.7,3.9-25.7-6.7-31.3-23.6
		c-5.6-17-0.6-33.9,11.1-37.8C174.1,324.9,188.1,335.5,193.7,352.4"/>
	<path id="Fill-29" class="st8" d="M280.9,343.9c-1,0.2-1.2,1.4-0.4,1.9c1.6,1,3.7,1.5,5.7,1c2.1-0.4,3.7-1.7,4.6-3.3
		c0.5-0.8-0.3-1.7-1.3-1.5L280.9,343.9z"/>
	<path id="Fill-31" class="st10" d="M469.9,339.9c-1,0.2-1.2,1.4-0.4,1.9c1.6,1,3.7,1.5,5.7,1c2.1-0.4,3.7-1.7,4.6-3.3
		c0.5-0.8-0.3-1.7-1.3-1.5L469.9,339.9z"/>
	<g id="Group-35" transform="translate(0.000000, 471.000000)">
		<g id="Clip-34">
		</g>
		<defs>
			<filter id="Adobe_OpacityMaskFilter" filterUnits="userSpaceOnUse" x="0" y="0.1" width="0.9" height="0.9">
				<feColorMatrix  type="matrix" values="1 0 0 0 0  0 1 0 0 0  0 0 1 0 0  0 0 0 1 0"/>
			</filter>
		</defs>
		<mask maskUnits="userSpaceOnUse" x="0" y="0.1" width="0.9" height="0.9" id="mask-2_1_">
			<g class="st11">
				<polygon id="path-1_1_" class="st7" points="0,0 0.9,0 0.9,1 0,1 				"/>
			</g>
		</mask>
		<path id="Fill-33" class="st12" d="M0.4,1C1,1,1,0.1,0.4,0.1C-0.1,0.1-0.1,1,0.4,1"/>
	</g>
	<path id="Fill-36" class="st10" d="M478,259c0,0-6.1,29.4-21.7,28.4c-3.3-0.2-2.2-6.1-2.2-6.1s-23.2,13.8-30.2,10
		c-6.9-3.8,6.8-16,6.8-16L478,259z"/>
	<path id="Fill-38" class="st7" d="M451.4,356.1c-1.5,0.4-1.9,2.4-0.6,3.3c7.7,5.2,18.9,7.1,30.3,4.4c11.6-2.7,15.3-8.3,18.7-16.2
		c0.6-1.4-0.6-2.8-2-2.5L451.4,356.1z"/>
	<path id="Fill-40" class="st10" d="M451.4,309.3c0.7-0.1,1.2-0.6,1.4-1.2c0.9-3.8-1.2-6.8-5.7-5.9c-4.4,0.9-16.1,6.1-19,10.7
		c-0.4,0.6,0.2,1.3,0.9,1.1L451.4,309.3z"/>
	<path id="Fill-42" class="st10" d="M474.2,301.9c-0.5,0.2-1.1,0-1.5-0.5c-2.4-3-2.4-6.5,1-7.6c3.4-1.1,13.8-1.4,17.9,1.4
		c0.5,0.4,0.5,1.2-0.1,1.4L474.2,301.9z"/>
	<path id="Fill-44" class="st7" d="M115,457L32,153.2c-1.4-5.2-6.7-8.2-11.9-6.8c-5.2,1.4-8.2,6.7-6.8,11.9l81,298.8H115z"/>
	<polygon id="Fill-46" class="st7" points="261.3,38.4 266.1,23.8 254,14.3 269.4,14.3 274.9,0 279.6,14.6 295,15.3 282.5,24.2 
		286.6,39 274.1,30 	"/>
	<polygon id="Fill-48" class="st7" points="84.1,135.6 87.5,125.1 79,118.3 89.9,118.3 93.7,108 97.1,118.5 108,119 99.1,125.4 
		102.1,136 93.2,129.5 	"/>
	<polygon id="Fill-50" class="st0" points="160.2,72.5 164.3,59.8 154,51.5 167.2,51.5 171.8,39 175.8,51.7 189,52.3 178.3,60.1 
		181.8,73 171.2,65.1 	"/>
	<polygon id="Fill-52" class="st7" points="370.7,38.4 365.9,23.8 378,14.3 362.6,14.3 357.1,0 352.4,14.6 337,15.3 349.5,24.2 
		345.4,39 357.9,30 	"/>
	<polygon id="Fill-54" class="st7" points="548.9,135.6 545.5,125.1 554,118.3 543.1,118.3 539.3,108 535.9,118.5 525,119 
		533.9,125.4 530.9,136 539.8,129.5 	"/>
	<polygon id="Fill-56" class="st0" points="471.8,72.5 467.7,59.8 478,51.5 464.8,51.5 460.2,39 456.2,51.7 443,52.3 453.7,60.1 
		450.2,73 460.8,65.1 	"/>
	<path id="Fill-58" class="st7" d="M536.2,405.4c-10.7,10.1-23.8,17.7-38.6,21.7c-52.2,14-106.9-21.1-122.3-78.4
		c-15.4-57.3,14.4-115.1,66.6-129.1c13.1-3.5,26.4-3.9,39.1-1.7c-25.3-37.9-72.6-57.5-119.2-45.3c-19.5,5.1-36.5,15.2-49.8,28.5
		L386.5,453H549L536.2,405.4z"/>
	<path id="Fill-60" class="st13" d="M258,346.5c0,3-4.9,5.5-11,5.5c-6.1,0-11-2.5-11-5.5s4.9-5.5,11-5.5
		C253.1,341,258,343.5,258,346.5"/>
	<path id="Fill-62" class="st13" d="M308.2,336.4c0.9,2.4,4.5,3.2,8.8,2.3l-3.1-10.6C309.7,330.4,307.3,333.8,308.2,336.4"/>
	<path id="Fill-64" class="st9" d="M463.4,265.2c11.6-3.1,23.3-4.7,34.6-4.9l-2.6-9.8c-3.2-12.1-8.3-23.2-14.8-33.1
		c-12.7-2.2-26-1.8-39.1,1.7c-50.6,13.6-80.1,68.4-67.7,123.9C386.8,307.3,419.7,277,463.4,265.2"/>
	<path id="Fill-66" class="st0" d="M381.7,352.4c5.6,17,0.6,33.9-11.1,37.7c-11.7,3.9-25.7-6.7-31.3-23.6
		c-5.6-17-0.6-33.9,11.1-37.8C362.1,324.9,376.1,335.5,381.7,352.4"/>
	<path id="Fill-68" class="st14" d="M309.9,351.7c0.4-0.9-0.3-1.9-1.4-1.7l-6.1,1.1c-1.5,0.3-3,0.2-4.4,0c-2.3-0.4-5.2-0.5-8.5-0.1
		c-4.1,0.5-7.5,1.7-9.5,3.1c-1.4,0.9-2.9,1.6-4.6,1.9l-11.3,2.1c-1.1,0.2-1.4,1.5-0.5,2.2c2.3,1.8,5.1,3.2,8.2,4.3
		c1.2,0.4,2.2,1,3.2,1.7c3.1,2.2,11,4.4,16.8,3.6c6.1-0.8,11.1-5.3,12.3-8.2c0.5-1.2,1.1-2.2,1.9-3.2
		C307.4,356.5,308.6,354.2,309.9,351.7"/>
	<path id="Fill-70" class="st7" d="M276.8,358.7c3.6-1.7,16.7-3.9,25.9-4.7c0.9-0.1,1.5,0.8,1.3,1.6l-2.8,2.2
		c-0.1,0.4-0.4,0.7-0.8,0.8c-2.5,1-11.7,4.3-20.9,3.1c-0.3,0-0.6-0.2-0.9-0.4l-2.1-0.7C275.7,360.1,275.9,359.1,276.8,358.7"/>
	<path id="Fill-76" class="st15" d="M401.4,460l-7.6-0.7c2.2-23.8-2.6-46.7-14.3-57.9c-18.4-17.5-48.1-13.3-48.4-13.2l-1.1-7.6
		c0.3-0.1,8.5-1.3,19.3-0.1c14.4,1.6,26.7,6.9,35.5,15.3C398.3,408.7,403.9,433.7,401.4,460"/>
	<path id="Fill-78" class="st15" d="M345,384.5c0,8.6-6.9,15.5-15.5,15.5c-8.6,0-15.5-6.9-15.5-15.5s6.9-15.5,15.5-15.5
		C338.1,369,345,375.9,345,384.5"/>
	<g id="Group-82" transform="translate(35.000000, 450.000000)">
		<g id="Clip-81">
		</g>
		<defs>
			<filter id="Adobe_OpacityMaskFilter_1_" filterUnits="userSpaceOnUse" x="-0.7" y="0.7" width="623.5" height="11.5">
				<feColorMatrix  type="matrix" values="1 0 0 0 0  0 1 0 0 0  0 0 1 0 0  0 0 0 1 0"/>
			</filter>
		</defs>
		<mask maskUnits="userSpaceOnUse" x="-0.7" y="0.7" width="623.5" height="11.5" id="mask-4_1_">
			<g class="st16">
				<polygon id="path-3_1_" class="st7" points="-0.7,0.7 622.9,0.7 622.9,12.2 -0.7,12.2 				"/>
			</g>
		</mask>
		<path id="Fill-80" class="st17" d="M619.6,0.7H2.6C0.8,0.7-0.7,2.2-0.7,4v4.9c0,1.8,1.5,3.3,3.3,3.3h617c1.8,0,3.3-1.5,3.3-3.3V4
			C622.9,2.2,621.4,0.7,619.6,0.7"/>
	</g>
	<path id="Fill-83" class="st8" d="M264.4,313.3c0.7,0.1,1.2-0.6,1.4-1.2c0.9-3.8-1.2-6.8-5.7-5.9c-4.4,0.9-16.1,6.1-19,10.7
		c-0.4,0.6,0.2,1.3,0.9,1.1C242.1,318,253.9,311.8,264.4,313.3"/>
	<path id="Fill-85" class="st8" d="M287.1,306.8c-0.4,0.4-1.1,0-1.5-0.5c-2.4-2.9-2.3-6.3,1.1-7.4c3.4-1.1,13.8-1.8,17.9,0.9
		c0.5,0.3,0.5,1.2-0.1,1.4C304.5,301.2,293.6,301.1,287.1,306.8"/>
	<path id="Fill-87" class="st15" d="M270,330c0,3.9-3.1,7-7,7c-3.9,0-7-3.1-7-7s3.1-7,7-7C266.9,323,270,326.1,270,330"/>
	<path id="Fill-89" class="st15" d="M307,320.5c0,3.6-2.9,6.5-6.5,6.5c-3.6,0-6.5-2.9-6.5-6.5s2.9-6.5,6.5-6.5
		C304.1,314,307,316.9,307,320.5"/>
	<path id="Fill-91" class="st15" d="M270,329.6c0,0-2.6-10.7-17.8-6.7l-6.9,2l3.7,1.4l-4,2.3l5.5,1.4l2.3-3.1
		C252.8,326.9,263.1,323.7,270,329.6"/>
	<path id="Fill-93" class="st15" d="M290.3,325c0,0-3-10.1,10.5-13.6l6.2-1.4l-2.2,2.9l4.2,0.1l-3.5,3.6l-3.2-1.6
		C302.2,315,292.9,317,290.3,325"/>
	<path id="Fill-95" class="st15" d="M456,326.5c0,3.6-2.9,6.5-6.5,6.5c-3.6,0-6.5-2.9-6.5-6.5s2.9-6.5,6.5-6.5
		C453.1,320,456,322.9,456,326.5"/>
	<path id="Fill-97" class="st15" d="M494,314.5c0,3.6-2.9,6.5-6.5,6.5s-6.5-2.9-6.5-6.5c0-3.6,2.9-6.5,6.5-6.5S494,310.9,494,314.5"
		/>
	<path id="Fill-99" class="st15" d="M456.9,323.1c-1.6-2-5.4-5.3-12.4-3.7c-3.2,0.7-6.1,2.6-8.2,5.2l-1.3,1.6
		c-0.2,0.2-0.1,0.5,0.1,0.7l1.1,0.7c1.2,0.8,2.7,0.3,3.3-1l0.5-1c0-0.1,0.1-0.2,0.2-0.2c1.2-0.6,8.9-4.4,16-1.5
		C456.8,324,457.2,323.5,456.9,323.1"/>
	<path id="Fill-101" class="st15" d="M475,315.5c0.3-2.6,1.8-7.4,8.4-9.7c3.1-1.1,6.4-1,9.4,0.2l1.9,0.7c0.3,0.1,0.4,0.4,0.3,0.7
		l-0.6,1.2c-0.6,1.3-2.1,1.7-3.3,0.9l-0.9-0.7c-0.1-0.1-0.2-0.1-0.3-0.1c-1.3,0.1-9.6,0.9-14.1,7.1
		C475.5,316.2,474.9,315.9,475,315.5"/>
</g>
<g id="Capa_3" class="st18">
	<rect x="-1.3" y="-1" class="st19" width="660.7" height="476.3"/>
</g>
<g id="Capa_2" class="st18">
	<g class="st20">
		<path d="M16.3,230.9c32.1,0,36.6-17.6,36.6-33.4c0-12.7-1.8-25.3-3.6-38c-1.8-12.7-3.6-24.8-3.6-37.5c0-41.6,27.1-59.2,65.5-59.2
			h9.5v24.8h-8.1c-26.7,0-35.7,14.5-35.7,38.9c0,10.4,1.4,21.2,3.2,32.1c1.8,11.3,3.2,22.1,3.2,34.3c0.5,28.9-12.2,43.4-32.5,48.8
			v0.9c20.3,5,33,20.3,32.5,49.2c0,12.2-1.4,23.5-3.2,34.3c-1.8,11.3-3.2,21.7-3.2,32.5c0,25.3,10.4,39.3,35.7,39.3h8.1v24.8h-9.5
			c-37.5,0-65.5-16.3-65.5-61.9c0-12.2,1.8-24.8,3.6-37c1.8-12.2,3.6-24.4,3.6-36.6c0-14-4.5-33.4-36.6-33.4V230.9z"/>
		<path d="M630.7,254c-32.1,0-36.6,19.4-36.6,33.4c0,12.2,1.8,24.4,3.6,36.6c1.8,12.2,3.6,24.8,3.6,37c0,45.6-28.5,61.9-65.5,61.9
			h-9.5v-24.8h7.7c25.3-0.5,36.1-14,36.1-39.3c0-10.8-1.8-21.2-3.2-32.5c-1.8-10.8-3.6-22.1-3.6-34.3c0-28.9,12.6-44.3,32.5-49.2
			v-0.9c-19.9-5.4-32.5-19.9-32.5-48.8c0-12.2,1.8-23,3.6-34.3c1.4-10.8,3.2-21.7,3.2-32.1c0-24.4-9.5-38.4-35.7-38.9h-8.1V62.9h9
			c38.4,0,66,17.6,66,59.2c0,12.7-1.8,24.8-3.6,37.5c-1.8,12.6-3.6,25.3-3.6,38c0,15.8,4.5,33.4,36.6,33.4V254z"/>
	</g>
</g>
<g id="Capa_4" class="st18">
	<g class="st20">
		<path d="M239.8,105.9h46.4v188c0,25.7-8,46-24,61.1c-16,15.1-37.2,22.7-63.4,22.7c-28,0-49.6-7.1-64.8-21.2
			c-15.2-14.1-22.8-33.8-22.8-58.9h46.4c0,14.2,3.5,25,10.6,32.1c7.1,7.2,17.3,10.8,30.7,10.8c12.5,0,22.5-4.1,29.9-12.4
			c7.4-8.3,11.1-19.7,11.1-34.3V105.9z"/>
		<path d="M479.6,305c0-11.8-4.1-20.9-12.4-27.3c-8.3-6.4-23.2-12.8-44.8-19.3c-21.6-6.5-38.8-13.8-51.6-21.7
			c-24.4-15.3-36.7-35.4-36.7-60c0-21.6,8.8-39.4,26.4-53.4c17.6-14,40.5-21,68.6-21c18.7,0,35.3,3.4,49.9,10.3
			c14.6,6.9,26.1,16.7,34.4,29.4c8.3,12.7,12.5,26.8,12.5,42.3h-46.4c0-14-4.4-25-13.2-32.9c-8.8-7.9-21.3-11.9-37.7-11.9
			c-15.2,0-27,3.3-35.5,9.8c-8.4,6.5-12.6,15.6-12.6,27.3c0,9.8,4.5,18,13.6,24.6c9.1,6.6,24.1,13,44.9,19.2
			c20.9,6.2,37.6,13.3,50.3,21.2c12.6,7.9,21.9,17,27.8,27.3c5.9,10.3,8.8,22.3,8.8,36c0,22.3-8.6,40.1-25.7,53.3
			c-17.1,13.2-40.4,19.8-69.7,19.8c-19.4,0-37.2-3.6-53.5-10.8c-16.3-7.2-28.9-17.1-37.9-29.7c-9-12.6-13.5-27.4-13.5-44.2h46.6
			c0,15.2,5,27,15.1,35.4c10.1,8.4,24.5,12.5,43.3,12.5c16.2,0,28.4-3.3,36.6-9.9C475.5,324.5,479.6,315.8,479.6,305z"/>
	</g>
</g>
</svg>
