<?xml version="1.0" encoding="utf-8"?>
<!-- Generator: Adobe Illustrator 23.0.0, SVG Export Plug-In . SVG Version: 6.00 Build 0)  -->
<svg version="1.1" xmlns="http://www.w3.org/2000/svg" xmlns:xlink="http://www.w3.org/1999/xlink" x="0px" y="0px"
	 viewBox="0 0 282 163" style="enable-background:new 0 0 282 163;" xml:space="preserve">
<style type="text/css">
	.st0{fill:none;stroke:#F9086A;stroke-miterlimit:10;}
	.st1{fill:#FFE000;}
	.st2{fill-rule:evenodd;clip-rule:evenodd;fill:#FF4119;}
	.st3{fill-rule:evenodd;clip-rule:evenodd;fill:#004AA4;}
	.st4{fill-rule:evenodd;clip-rule:evenodd;fill:#FFDE19;}
	.st5{fill:none;}
	.st6{fill-rule:evenodd;clip-rule:evenodd;fill:#FFFFFF;}
</style>
<g id="Capa_4">
	<path class="st0" d="M363.7-8.8"/>
	<g>
		<path class="st1" d="M151.9,8.3L151.9,8.3l5.5,0l0,20.8c0,0-0.3,6.6-6.5,7.2l-3.3,0c0,0-4.1-0.2-6.8-5.1l4.5-2.9
			c0,0,1.5,2.8,2.7,2.8s3.2,0.3,3.8-2.1L151.9,8.3z"/>
		<path class="st1" d="M160.5,30.5c0-0.1,4.5-2.5,4.5-2.5s3.1,4.3,6.7,3.3c3.6-1.1,2.5-3.9,1.9-4.4c0,0-1.7-1.4-3-1.8
			c-1.3-0.4-5.7-2.7-6.3-3.7c-0.6-1-1.9-2.2-2.2-4.4c-0.3-2.2,0.9-6.7,3.6-7.8c2.8-1.1,3.5-1.1,3.5-1.1s4-0.8,7.6,2.6l1.3,2
			l-4.3,2.9c0,0-1.2-3-4.4-2.3c0,0-3.1,1-1.1,4.1c0,0,0.8,0.8,1.9,1.3c1.1,0.6,5.3,2.2,5.5,2.5c0,0,2.5,1.4,3.7,4.4
			s-0.2,6.3-0.2,6.3s-1.9,3.3-4.2,4c-2.4,0.7-5.8,0.8-5.8,0.8s-3.7-0.8-5.1-1.6C162.9,33.9,160.8,31.1,160.5,30.5z"/>
	</g>
</g>
<g id="Capa_1">
	<title>logo conf</title>
	<desc>Created with Sketch.</desc>
	<path id="Fill-1" class="st2" d="M89.7,131c1.5,1.7,3.2,3.1,5.1,4.1c0.7,0.4,1.4,0.7,2.1,1c2.8,1.2,6,1.8,9.6,1.8
		c3.5,0,6.7-0.6,9.5-1.8c2.8-1.2,5.2-2.9,7.2-5.2c1.5-1.7,2.7-3.7,3.7-6H86C87,127.3,88.2,129.3,89.7,131"/>
	<path id="Fill-3" class="st3" d="M84,112c0,4.3,0.5,8.2,1.6,11.6c0.3,0.8,0.5,1.6,0.9,2.4h41.1c0.3-0.8,0.6-1.5,0.8-2.4
		c1.1-3.4,1.6-7.3,1.6-11.6v0L84,112L84,112z"/>
	<path id="Fill-5" class="st4" d="M128.4,102.6c-0.2-0.7-0.5-1.4-0.8-2.1c-1-2.2-2.2-4.1-3.7-5.8c-2-2.2-4.4-3.8-7.2-5
		c-2.8-1.1-6-1.7-9.6-1.7c-3.6,0-6.8,0.6-9.6,1.7c-0.6,0.3-1.2,0.5-1.8,0.8c-2.1,1.1-3.9,2.4-5.5,4.1c-1.5,1.7-2.8,3.6-3.8,5.8
		c-0.3,0.7-0.6,1.4-0.8,2.1c-1.1,3.1-1.6,6.6-1.6,10.4h46C130,109.1,129.5,105.6,128.4,102.6"/>
	<polygon id="Clip-22" class="st5" points="0,163 282,163 282,0 0,0 	"/>
	<path id="Fill-23" class="st6" d="M135.6,126.7c-1.4,4.3-3.5,8-6.2,11c-2.7,3-6,5.3-9.8,6.9c-3.9,1.6-8.2,2.4-13,2.4
		c-4.8,0-9.2-0.8-13.1-2.4c-1-0.4-2-0.9-2.9-1.4c-2.7-1.5-5-3.3-7-5.5c-2.7-3-4.8-6.7-6.3-11c-1.5-4.3-2.2-9.3-2.2-14.7
		c0-5.5,0.7-10.4,2.2-14.7c1.5-4.3,3.5-8,6.3-11.1c2.1-2.4,4.6-4.3,7.4-5.8c0.8-0.4,1.6-0.8,2.5-1.2c3.9-1.6,8.2-2.4,13.1-2.4
		c4.8,0,9.2,0.8,13,2.4c3.9,1.6,7.1,3.9,9.8,7c2.7,3,4.8,6.7,6.2,11.1c1.4,4.3,2.2,9.3,2.2,14.7
		C137.8,117.5,137.1,122.4,135.6,126.7L135.6,126.7z M282,68.2c0-3.4-2.7-6.1-6-6.1h-40.3h-5.2h-10.9h0h-0.1v0v60.6
		c0,1.3,0,2.8,0.1,4.3c0,0.1,0,0.2,0,0.3v4l-36-46.3l-15.6-20c-0.5-0.6-1-1.2-1.4-1.6c-0.4-0.4-0.8-0.7-1.3-0.9
		c-0.4-0.2-0.9-0.3-1.5-0.4c-0.5-0.1-1.2-0.1-2.1-0.1h-9.6v27.7c-2.3-5.4-5.5-10.2-9.4-14.3c-4.4-4.5-9.6-8.1-15.8-10.7
		c-6.2-2.6-13-3.9-20.5-3.9c-7.5,0-14.3,1.3-20.5,3.8c-2.8,1.1-5.3,2.5-7.7,4c-3,1.9-5.7,4.1-8.2,6.6C65.8,80,62.4,85.4,60,91.7
		c-2.4,6.2-3.6,13-3.6,20.3c0,7.3,1.2,14.1,3.6,20.3c1.6,4,3.5,7.7,5.9,11c-1.5,0.9-3,1.6-4.7,2.2c-1.7,0.6-3.6,1-5.6,1.3
		c-2,0.3-4.3,0.4-6.8,0.4c-4.2,0-8.1-0.8-11.8-2.4c-3.6-1.6-6.8-3.9-9.5-6.9c-2.7-3-4.8-6.7-6.4-11c-1.6-4.4-2.4-9.4-2.4-15
		c0-5.4,0.8-10.3,2.4-14.7c1.6-4.3,3.8-8,6.6-11.1c2.8-3,6.2-5.4,10.1-7c3.9-1.6,8.2-2.5,12.8-2.5h0.1c4,0,7.3-3.2,7.3-7.3v-8.1v0
		c-0.2,0-0.5,0-0.8-0.1c-0.7-0.1-1.4-0.1-2-0.2c-0.3,0-0.7-0.1-1-0.1c-0.2,0-0.4,0-0.7,0c-0.9,0-1.8-0.1-2.7-0.1
		c-7.5,0-14.4,1.3-20.6,3.8c-6.2,2.5-11.6,6-16,10.5c-4.5,4.5-7.9,9.9-10.4,16.1C1.2,97.6,0,104.5,0,112c0,7.4,1.1,14.2,3.3,20.5
		c2.2,6.3,5.4,11.6,9.5,16.1c4.1,4.5,9.2,8,15,10.6c5.9,2.5,12.5,3.8,19.8,3.8c8.2,0,15.2-1.3,21.1-4c2.9-1.3,5.6-3,8.1-4.9
		c2.8,2,5.9,3.7,9.2,5c6.2,2.6,13,3.8,20.5,3.8c7.5,0,14.3-1.3,20.5-3.8c6.2-2.6,11.4-6.1,15.8-10.7c3.9-4.1,7.1-8.9,9.4-14.3v27.7
		h16.2v-61.3c0-1.2,0-2.5-0.1-4c-0.1-1.4-0.2-2.9-0.3-4.4l8.6,11.1l43.1,55.3c0.9,1.2,1.8,2,2.8,2.5c0.9,0.4,2,0.7,3.4,0.7
		c0.1,0,0.2,0,0.2,0h2.6h6.9h2.4v-40.6h29.6c4.1,0,7.5-3.4,7.5-7.5v-7.3h0h-37V76.9H261h21V68.2z"/>
</g>
<g id="Capa_5">
</g>
</svg>
